<svg xmlns="http://www.w3.org/2000/svg" width="1391" height="829" viewBox="0 0 1391 829" version="1.1"><path d="M 232.235 104.104 L 232.500 134.373 250 137.713 C 313.650 149.859, 378.611 165.214, 423.945 178.829 L 439.500 183.500 439.752 405.708 L 440.004 627.915 450.252 631.067 C 458.752 633.681, 498.189 647.166, 504.250 649.531 C 505.911 650.179, 506 644.275, 506 534.040 L 506 417.865 508.250 418.544 C 512.902 419.947, 553.097 436.036, 568 442.460 C 576.525 446.135, 595.538 455.041, 610.250 462.251 L 637 475.361 637 546.657 L 637 617.954 639.250 619.320 C 640.487 620.071, 647.800 624.208, 655.500 628.512 C 667.741 635.356, 692.169 650.035, 700.250 655.403 L 703 657.230 703 449.714 L 703 242.198 690.250 234.253 C 673.408 223.759, 638.859 204, 637.350 204 C 637.157 204, 637 249.450, 637 305 C 637 360.550, 636.836 406, 636.635 406 C 636.434 406, 624.847 400.403, 610.885 393.563 C 584.421 380.598, 547.343 364.418, 521.250 354.449 L 506 348.623 506 247.025 L 506 145.427 485.250 138.219 C 419.002 115.204, 333.957 93.014, 256.500 78.534 C 246.050 76.580, 236.256 74.724, 234.735 74.408 L 231.970 73.835 232.235 104.104 M 207.500 163.394 C 137.700 174.881, 80.128 229.529, 58.593 304.736 C 51.782 328.523, 50.554 338.315, 50.534 369 C 50.519 391.343, 50.858 398.375, 52.339 406.500 C 56.769 430.802, 62.903 449.956, 72.515 469.500 C 114.344 554.551, 201.285 594.801, 284 567.408 C 350.424 545.410, 400.245 481.858, 412.496 403.500 C 414.738 389.158, 415.500 361.959, 414.079 347 C 409.929 303.318, 393.407 261.611, 367.335 229 C 341.060 196.134, 305.582 173.737, 265.770 164.883 C 253.850 162.232, 219.841 161.363, 207.500 163.394 M 227 237.644 C 212.531 238.987, 200.052 242.651, 188.113 249.062 C 155.507 266.572, 131.977 301.688, 124.833 343.500 C 121.946 360.399, 122.617 387.561, 126.303 403 C 136.098 444.030, 160.006 475.890, 192.381 491.056 C 206.144 497.503, 215.255 499.438, 232 499.471 C 244.058 499.495, 247.931 499.113, 255 497.201 C 307.634 482.966, 344.403 425.676, 341.708 362.099 C 341.054 346.662, 339.173 335.727, 334.811 322 C 322.535 283.366, 294.578 253.039, 261.180 242.127 C 251.194 238.865, 235.719 236.835, 227 237.644" stroke="none" fill="#f4a41c" fill-rule="evenodd"/><path d="M 1310.500 53.705 C 1302.571 54.776, 1255.227 62.188, 1253.264 62.666 L 1251.027 63.210 1250.764 239.855 L 1250.500 416.500 1248.200 421.123 C 1244.269 429.022, 1242.840 429.809, 1227.387 432.588 C 1219.749 433.961, 1205.453 436.641, 1195.617 438.543 C 1171.886 443.131, 1170.840 443.103, 1165.479 437.742 C 1157.423 429.686, 1158 444.046, 1158 251.751 C 1158 89.467, 1157.912 80.892, 1156.250 81.397 C 1155.287 81.690, 1150.225 82.870, 1145 84.020 C 1136.775 85.830, 1106.980 93.132, 1095.750 96.089 L 1092 97.077 1092 262.408 C 1092 443.823, 1091.756 436.052, 1098.001 453.164 C 1102.687 466.005, 1108.198 474.411, 1118.897 485.040 C 1126.707 492.799, 1130.222 495.466, 1137.726 499.325 C 1157.581 509.535, 1171.945 510.558, 1205 504.112 C 1216.275 501.913, 1232.274 498.970, 1240.552 497.571 C 1248.831 496.173, 1258.180 494.142, 1261.328 493.059 C 1284.203 485.189, 1303.179 465.463, 1311.549 440.855 C 1317.249 424.097, 1317 433.489, 1317 235.390 C 1317 62.295, 1316.911 53.008, 1315.250 53.150 C 1314.287 53.232, 1312.150 53.482, 1310.500 53.705 M 1047 109.489 C 1037.375 112.428, 1023.200 116.850, 1015.500 119.317 L 1001.500 123.802 950.500 226.871 L 899.500 329.939 899 246.520 L 898.500 163.102 889.500 167.110 C 884.550 169.315, 869.813 176.350, 856.750 182.744 L 833 194.370 833 410.769 C 833 529.787, 833.342 627.017, 833.760 626.833 C 834.177 626.650, 844.640 621.488, 857.010 615.363 C 869.379 609.238, 883.885 602.312, 889.245 599.972 L 898.991 595.719 899.245 494.317 L 899.500 392.915 968.955 468.458 C 1007.155 510.006, 1038.979 544, 1039.675 544 C 1040.372 544, 1047.817 541.991, 1056.221 539.536 C 1064.624 537.080, 1078.836 533.119, 1087.802 530.732 C 1096.769 528.346, 1104.051 525.967, 1103.985 525.447 C 1103.919 524.926, 1069.582 486.046, 1027.682 439.048 C 985.782 392.049, 951.646 353.124, 951.825 352.548 C 952.189 351.375, 1064.447 111.071, 1066.650 106.750 C 1067.922 104.253, 1067.888 104.007, 1066.276 104.073 C 1065.299 104.113, 1056.625 106.550, 1047 109.489 M 755.324 183.394 C 746.348 186.299, 736.678 195.047, 732.831 203.741 C 729.950 210.253, 729.239 222.869, 731.344 230.110 C 735.904 245.798, 750.282 256.223, 767.524 256.344 C 774.448 256.392, 776.442 255.981, 782.071 253.347 C 793.680 247.915, 800.547 239.834, 803.564 228.055 C 807.878 211.219, 799.016 192.566, 783.196 185.181 C 778.562 183.018, 775.821 182.477, 768.500 182.282 C 763.011 182.136, 757.871 182.570, 755.324 183.394 M 734 475.984 C 734 669.710, 733.859 688.496, 732.377 691.619 C 730.227 696.149, 725.817 699.154, 720.425 699.761 C 711.934 700.718, 706.035 695.982, 703.914 686.505 C 702.707 681.115, 702.502 680.874, 695.089 676.135 C 677.183 664.687, 639.669 643, 637.773 643 C 636.306 643, 636.898 688.156, 638.485 697.255 C 644.322 730.727, 665.471 756.437, 695.500 766.566 C 705.821 770.047, 722.802 770.981, 733.678 768.666 C 764.182 762.172, 787.232 739.322, 797.396 705.500 L 799.500 698.500 799.763 481.172 L 800.027 263.845 797.263 265.794 C 788.387 272.056, 777.447 275.425, 766.387 275.301 C 755.833 275.183, 746.825 272.230, 736.750 265.584 L 734 263.770 734 475.984 M 1301.500 512.147 C 1274.779 516.094, 1221.249 525.174, 1198.764 529.573 C 1175.762 534.074, 1133.829 543.026, 1133.148 543.582 C 1132.753 543.906, 1144.973 595.266, 1145.600 595.918 C 1145.821 596.147, 1150.389 595.324, 1155.751 594.088 C 1206.066 582.491, 1270.032 570.581, 1310.500 565.275 L 1316.500 564.488 1316.766 537.244 C 1316.976 515.744, 1316.765 510.024, 1315.766 510.113 C 1315.070 510.175, 1308.650 511.091, 1301.500 512.147 M 1108 549.916 C 1102.225 551.420, 1096.299 552.953, 1094.831 553.324 L 1092.162 553.997 1098.731 579.749 C 1102.344 593.912, 1105.403 605.633, 1105.528 605.795 C 1105.892 606.265, 1115.416 603.803, 1116.304 603.010 C 1116.747 602.615, 1115.946 597.704, 1114.525 592.098 C 1113.104 586.492, 1112.170 581.534, 1112.450 581.081 C 1112.729 580.629, 1114.406 579.969, 1116.175 579.615 C 1117.944 579.261, 1121.054 578.524, 1123.087 577.977 L 1126.783 576.981 1125.742 572.741 C 1125.169 570.408, 1124.638 568.408, 1124.562 568.295 C 1124.486 568.183, 1121.083 568.950, 1117 570 C 1112.917 571.050, 1109.488 571.817, 1109.380 571.705 C 1109.272 571.592, 1108.512 568.918, 1107.690 565.762 L 1106.196 560.024 1110.348 558.945 C 1112.632 558.351, 1116.188 557.428, 1118.250 556.894 C 1120.313 556.360, 1122 555.655, 1122 555.327 C 1122 553.771, 1119.613 547.011, 1119.092 547.091 C 1118.766 547.141, 1113.775 548.412, 1108 549.916 M 1077.750 557.716 C 1075.138 558.486, 1073 559.665, 1073 560.336 C 1073 561.006, 1074.980 568.450, 1077.401 576.878 C 1079.821 585.306, 1081.457 591.818, 1081.035 591.351 C 1080.614 590.883, 1075.646 584.302, 1069.995 576.727 C 1062.753 567.019, 1059.245 563.085, 1058.110 563.399 C 1047.206 566.410, 1045.001 567.231, 1045.007 568.278 C 1045.015 569.769, 1058.672 618.005, 1059.249 618.582 C 1059.475 618.808, 1062.009 618.296, 1064.880 617.443 C 1068.959 616.232, 1069.992 615.522, 1069.604 614.196 C 1064.439 596.557, 1060.976 583.690, 1061.305 583.361 C 1061.534 583.133, 1066.318 589.253, 1071.936 596.961 C 1077.555 604.670, 1082.541 611.216, 1083.015 611.509 C 1083.905 612.060, 1095.934 609.135, 1097.227 608.054 C 1097.969 607.433, 1084.373 557.985, 1083.164 556.908 C 1082.799 556.583, 1080.362 556.946, 1077.750 557.716 M 1023.608 573.635 C 1014.317 576.559, 1006.552 579.114, 1006.353 579.314 C 1005.883 579.784, 1008.042 586.243, 1009.040 587.354 C 1009.462 587.823, 1012.197 587.507, 1015.117 586.650 C 1018.038 585.794, 1020.539 585.206, 1020.675 585.342 C 1020.812 585.479, 1023.650 594.345, 1026.983 605.045 C 1030.316 615.745, 1033.224 625.012, 1033.447 625.637 C 1033.965 627.096, 1045.008 624.175, 1044.983 622.585 C 1044.973 621.988, 1042.116 612.438, 1038.633 601.363 L 1032.301 581.226 1038.192 579.442 C 1042.781 578.052, 1043.948 577.309, 1043.471 576.079 C 1043.135 575.211, 1042.608 573.253, 1042.301 571.729 C 1041.993 570.205, 1041.462 568.814, 1041.121 568.638 C 1040.779 568.462, 1032.898 570.710, 1023.608 573.635 M 971.500 591.087 C 928.561 606.853, 894.084 621.469, 856.750 639.731 L 833 651.349 833 682.174 C 833 699.128, 833.138 713, 833.308 713 C 833.477 713, 838.764 710.042, 845.058 706.426 C 881.636 685.412, 938.734 660.049, 991.352 641.442 C 1001.171 637.970, 1009.428 634.906, 1009.701 634.633 C 1009.974 634.360, 1006.447 622.856, 1001.864 609.068 C 995.791 590.801, 993.119 584.015, 992.015 584.055 C 991.182 584.086, 981.950 587.250, 971.500 591.087" stroke="none" fill="#0494cc" fill-rule="evenodd"/></svg>